<svg  xmlns="http://www.w3.org/2000/svg">
<symbol id="right-arrow" viewBox="0 0 69.8 69.5">
<g>
<path class="st0" d="M34.8,1.1c-18.5,0-33.5,15-33.5,33.5c0,18.5,15,33.5,33.5,33.5s33.5-15,33.5-33.5C68.3,16.1,53.3,1.1,34.8,1.1z
	 M46,38.6c-4.1,4.6-8.1,9.3-12.4,13.7c-1.1,1.1-4,1.7-5.2,1c-2.5-1.4-3.5-3.9-1-6.7c3.4-3.7,6.6-7.4,10.2-11.5
	c-3.5-4-6.6-7.7-9.9-11.2c-2.6-2.8-1.8-5,0.6-7.2c2.7-2.5,4.1-0.3,5.7,1.4c4,4.5,8,8.9,12,13.4C48.1,33.9,48.1,36.2,46,38.6z"/>

</g>
<symbol id="finish-arrow" viewBox="0 0 67 67">
<g>
<path class="st0" d="M34.8,1.1c-18.5,0-33.5,15-33.5,33.5c0,18.5,15,33.5,33.5,33.5s33.5-15,33.5-33.5C68.3,16.1,53.3,1.1,34.8,1.1z
	 M46,38.6c-4.1,4.6-8.1,9.3-12.4,13.7c-1.1,1.1-4,1.7-5.2,1c-2.5-1.4-3.5-3.9-1-6.7c3.4-3.7,6.6-7.4,10.2-11.5
	c-3.5-4-6.6-7.7-9.9-11.2c-2.6-2.8-1.8-5,0.6-7.2c2.7-2.5,4.1-0.3,5.7,1.4c4,4.5,8,8.9,12,13.4C48.1,33.9,48.1,36.2,46,38.6z"/>

</g>
</symbol>
<symbol id="slider-close" viewBox="0 0 25 25">
<g>
<path style=" stroke:none;fill-rule:nonzero;" d="M 16.628906 12.503906 L 24.367188 4.769531 C 25.21875 3.914062 25.21875 2.527344 24.367188 1.675781 L 23.335938 0.644531 C 22.480469 -0.210938 21.09375 -0.210938 20.238281 0.644531 L 12.503906 8.378906 L 4.769531 0.640625 C 3.914062 -0.214844 2.527344 -0.214844 1.675781 0.640625 L 0.640625 1.671875 C -0.214844 2.527344 -0.214844 3.914062 0.640625 4.765625 L 8.378906 12.503906 L 0.644531 20.238281 C -0.210938 21.09375 -0.210938 22.480469 0.644531 23.335938 L 1.675781 24.367188 C 2.527344 25.21875 3.914062 25.21875 4.769531 24.367188 L 12.503906 16.628906 L 20.238281 24.367188 C 21.09375 25.21875 22.480469 25.21875 23.335938 24.367188 L 24.367188 23.335938 C 25.21875 22.480469 25.21875 21.09375 24.367188 20.238281 Z M 16.628906 12.503906 "/>
</g>
</symbol>
<symbol id="likes" viewBox="0 0 16 16">
<g>
<path d="M4.26562 7.74846V14.436L4.27031 7.74846H4.26562ZM12.675 6.36877H7.7625L7.9125 3.26877C7.92188 3.08283 7.83906 2.90783 7.68437 2.79221C7.58906 2.72189 7.47188 2.68596 7.35469 2.68752C7.04844 2.68908 6.77813 2.89689 6.69531 3.19221C6.11563 5.29221 5.68125 6.86721 5.39062 7.91877V13.3125H11.6313C11.7874 13.2425 11.9201 13.1289 12.0132 12.9853C12.1063 12.8417 12.156 12.6743 12.1562 12.5031C12.1562 12.3516 12.1203 12.2078 12.0484 12.0766L11.8313 11.6797L12.1734 11.3828C12.2698 11.2994 12.347 11.1962 12.3998 11.0803C12.4527 10.9643 12.4799 10.8384 12.4797 10.711C12.4797 10.5594 12.4437 10.4156 12.3719 10.2844L12.1547 9.88752L12.4969 9.59064C12.5932 9.50723 12.6704 9.40403 12.7232 9.28809C12.7761 9.17215 12.8033 9.04618 12.8031 8.91877C12.8031 8.76721 12.7672 8.62346 12.6953 8.49221L12.4766 8.09377L12.8188 7.79689C12.9151 7.71348 12.9923 7.61028 13.0451 7.49434C13.098 7.3784 13.1252 7.25243 13.125 7.12502C13.125 6.82658 12.9531 6.53908 12.675 6.36877Z" fill="#E6F7FF"/>
<path d="M1.75 8.25005V13.9375C1.75 14.2141 1.97344 14.4375 2.25 14.4375H3.26562V7.75005H2.25C1.97344 7.75005 1.75 7.97349 1.75 8.25005ZM13.8422 8.33911C14.1047 7.99224 14.25 7.56724 14.25 7.12505C14.25 6.42349 13.8578 5.75786 13.2266 5.39067C13.0641 5.29535 12.879 5.24519 12.6906 5.24536H8.94219L9.03594 3.32505C9.05937 2.86099 8.89531 2.42036 8.575 2.08442C8.4187 1.91868 8.23 1.78683 8.02061 1.69705C7.81123 1.60728 7.58563 1.5615 7.35781 1.56255C6.54531 1.56255 5.82656 2.10942 5.61094 2.89224L4.27031 7.74849L4.26562 14.436H11.6422C11.7875 14.436 11.9266 14.4079 12.0562 14.3516C12.8 14.0344 13.2797 13.3079 13.2797 12.5016C13.2797 12.3047 13.2516 12.111 13.1953 11.9235C13.4578 11.5766 13.6031 11.1516 13.6031 10.7094C13.6031 10.5125 13.575 10.3188 13.5188 10.1313C13.7812 9.78442 13.9266 9.35942 13.9266 8.91724C13.9266 8.72036 13.8984 8.52661 13.8422 8.33911ZM12.8188 7.79692L12.4766 8.0938L12.6953 8.49224C12.7669 8.62297 12.804 8.76976 12.8031 8.9188C12.8031 9.17661 12.6922 9.42192 12.4969 9.59067L12.1547 9.88755L12.3719 10.2844C12.4434 10.4152 12.4805 10.562 12.4797 10.711C12.4797 10.9688 12.3687 11.2141 12.1734 11.3829L11.8313 11.6797L12.0484 12.0766C12.12 12.2073 12.1571 12.3541 12.1562 12.5032C12.1562 12.8532 11.95 13.1688 11.6313 13.3125H5.39062V7.9188C5.68125 6.8688 6.11562 5.2938 6.69531 3.19224C6.73581 3.04809 6.82198 2.92098 6.94087 2.82998C7.05977 2.73898 7.20497 2.689 7.35469 2.68755C7.47188 2.68599 7.58906 2.72192 7.68437 2.79224C7.83906 2.90786 7.92188 3.08286 7.9125 3.2688L7.7625 6.3688H12.675C12.9531 6.53911 13.125 6.82661 13.125 7.12505C13.125 7.38286 13.0141 7.62817 12.8188 7.79692Z" fill="#1890FF"/>
</g>
</symbol>
<symbol id="ellipse" viewBox="0 0 4 4">
<g>
<circle cx="2" cy="2" r="2" fill="#BFBFBF"/></g>
</symbol>
<symbol id="like" viewBox="0 0 24 24">
<g>
<path d="M20.7633 12.5094C21.157 11.9891 21.375 11.3516 21.375 10.6883C21.375 9.63596 20.7867 8.63987 19.8398 8.0844C19.5961 7.94142 19.3185 7.86617 19.0359 7.86643H13.4156L13.5563 4.98596C13.5891 4.28987 13.343 3.62893 12.8648 3.12502C12.6302 2.87665 12.3471 2.67904 12.0331 2.5444C11.7191 2.40975 11.3807 2.34094 11.0391 2.34221C9.82031 2.34221 8.74219 3.16252 8.41875 4.33674L6.40547 11.6258H3.375C2.96016 11.6258 2.625 11.961 2.625 12.3758V20.9071C2.625 21.3219 2.96016 21.6571 3.375 21.6571H17.468C17.6836 21.6571 17.8945 21.6149 18.0891 21.5305C19.2047 21.0547 19.9242 19.9649 19.9242 18.7555C19.9242 18.4602 19.882 18.1696 19.7977 17.8883C20.1914 17.368 20.4094 16.7305 20.4094 16.0672C20.4094 15.7719 20.3672 15.4813 20.2828 15.2C20.6766 14.6797 20.8945 14.0422 20.8945 13.3789C20.8898 13.0836 20.8477 12.7906 20.7633 12.5094ZM4.3125 19.9696V13.3133H6.21094V19.9696H4.3125ZM19.2281 11.6961L18.7148 12.1414L19.0406 12.7367C19.148 12.9328 19.2036 13.153 19.2023 13.3766C19.2023 13.7633 19.0336 14.1313 18.743 14.3844L18.2297 14.8297L18.5555 15.425C18.6628 15.6211 18.7185 15.8413 18.7172 16.0649C18.7172 16.4516 18.5484 16.8196 18.2578 17.0727L17.7445 17.518L18.0703 18.1133C18.1776 18.3094 18.2333 18.5296 18.232 18.7531C18.232 19.2781 17.9227 19.7516 17.4445 19.9672H7.71094V13.2383L10.043 4.78909C10.1031 4.57252 10.2322 4.38147 10.4107 4.24486C10.5891 4.10825 10.8073 4.03354 11.032 4.03205C11.2102 4.03205 11.3859 4.08362 11.5266 4.18909C11.7586 4.36252 11.8828 4.62502 11.8687 4.90393L11.6437 9.55393H19.0125C19.4297 9.8094 19.6875 10.2406 19.6875 10.6883C19.6875 11.075 19.5188 11.4406 19.2281 11.6961Z" />
</g>
</symbol>
<symbol id="comment" viewBox="0 0 24 24">
<g>
<path d="M10.8752 12C10.8752 12.2984 10.9937 12.5845 11.2047 12.7955C11.4157 13.0065 11.7018 13.125 12.0002 13.125C12.2985 13.125 12.5847 13.0065 12.7957 12.7955C13.0067 12.5845 13.1252 12.2984 13.1252 12C13.1252 11.7016 13.0067 11.4155 12.7957 11.2045C12.5847 10.9935 12.2985 10.875 12.0002 10.875C11.7018 10.875 11.4157 10.9935 11.2047 11.2045C10.9937 11.4155 10.8752 11.7016 10.8752 12ZM15.5627 12C15.5627 12.2984 15.6812 12.5845 15.8922 12.7955C16.1032 13.0065 16.3893 13.125 16.6877 13.125C16.986 13.125 17.2722 13.0065 17.4832 12.7955C17.6942 12.5845 17.8127 12.2984 17.8127 12C17.8127 11.7016 17.6942 11.4155 17.4832 11.2045C17.2722 10.9935 16.986 10.875 16.6877 10.875C16.3893 10.875 16.1032 10.9935 15.8922 11.2045C15.6812 11.4155 15.5627 11.7016 15.5627 12ZM6.18768 12C6.18768 12.2984 6.30621 12.5845 6.51718 12.7955C6.72816 13.0065 7.01431 13.125 7.31268 13.125C7.61105 13.125 7.8972 13.0065 8.10817 12.7955C8.31915 12.5845 8.43768 12.2984 8.43768 12C8.43768 11.7016 8.31915 11.4155 8.10817 11.2045C7.8972 10.9935 7.61105 10.875 7.31268 10.875C7.01431 10.875 6.72816 10.9935 6.51718 11.2045C6.30621 11.4155 6.18768 11.7016 6.18768 12ZM21.6846 7.93125C21.1549 6.67266 20.3955 5.54297 19.4275 4.57266C18.4663 3.60796 17.3253 2.84114 16.0689 2.31563C14.7799 1.77422 13.4111 1.5 12.0002 1.5H11.9533C10.533 1.50703 9.15721 1.78828 7.86346 2.34141C6.61789 2.87232 5.48752 3.64049 4.53534 4.60312C3.57674 5.57109 2.8244 6.69609 2.30409 7.95C1.76502 9.24844 1.49315 10.6289 1.50018 12.0492C1.50813 13.6769 1.89321 15.2806 2.62518 16.7344V20.2969C2.62518 20.5828 2.73877 20.857 2.94095 21.0592C3.14314 21.2614 3.41737 21.375 3.7033 21.375H7.26815C8.72196 22.107 10.3256 22.492 11.9533 22.5H12.0025C13.4064 22.5 14.7681 22.2281 16.0502 21.6961C17.3002 21.1768 18.437 20.419 19.3971 19.4648C20.365 18.5063 21.1267 17.3859 21.6588 16.1367C22.2119 14.843 22.4931 13.4672 22.5002 12.0469C22.5072 10.6195 22.2306 9.23438 21.6846 7.93125ZM18.1431 18.1969C16.5002 19.8234 14.3205 20.7188 12.0002 20.7188H11.9603C10.5471 20.7117 9.14315 20.3602 7.9033 19.6992L7.70643 19.5938H4.40643V16.2938L4.30096 16.0969C3.64002 14.857 3.28846 13.4531 3.28143 12.0398C3.27205 9.70312 4.16502 7.50937 5.8033 5.85703C7.43924 4.20469 9.62596 3.29062 11.9627 3.28125H12.0025C13.1744 3.28125 14.3111 3.50859 15.3822 3.95859C16.4275 4.39687 17.365 5.02734 18.1713 5.83359C18.9752 6.6375 19.608 7.57734 20.0463 8.62266C20.501 9.70547 20.7283 10.8539 20.7236 12.0398C20.7096 14.3742 19.7931 16.5609 18.1431 18.1969Z" />
</g>
</symbol>
<symbol id="share" viewBox="0 0 24 24">
<g>
<path d="M17.625 15.5625C16.957 15.5625 16.3406 15.7969 15.8578 16.1883L11.0016 12.675C11.0829 12.2287 11.0829 11.7713 11.0016 11.325L15.8578 7.81172C16.3406 8.20312 16.957 8.4375 17.625 8.4375C19.1766 8.4375 20.4375 7.17656 20.4375 5.625C20.4375 4.07344 19.1766 2.8125 17.625 2.8125C16.0734 2.8125 14.8125 4.07344 14.8125 5.625C14.8125 5.89687 14.85 6.15703 14.9227 6.40547L10.3102 9.74531C9.62578 8.83828 8.53828 8.25 7.3125 8.25C5.24062 8.25 3.5625 9.92812 3.5625 12C3.5625 14.0719 5.24062 15.75 7.3125 15.75C8.53828 15.75 9.62578 15.1617 10.3102 14.2547L14.9227 17.5945C14.85 17.843 14.8125 18.1055 14.8125 18.375C14.8125 19.9266 16.0734 21.1875 17.625 21.1875C19.1766 21.1875 20.4375 19.9266 20.4375 18.375C20.4375 16.8234 19.1766 15.5625 17.625 15.5625ZM17.625 4.40625C18.2977 4.40625 18.8438 4.95234 18.8438 5.625C18.8438 6.29766 18.2977 6.84375 17.625 6.84375C16.9523 6.84375 16.4062 6.29766 16.4062 5.625C16.4062 4.95234 16.9523 4.40625 17.625 4.40625ZM7.3125 14.0625C6.17578 14.0625 5.25 13.1367 5.25 12C5.25 10.8633 6.17578 9.9375 7.3125 9.9375C8.44922 9.9375 9.375 10.8633 9.375 12C9.375 13.1367 8.44922 14.0625 7.3125 14.0625ZM17.625 19.5938C16.9523 19.5938 16.4062 19.0477 16.4062 18.375C16.4062 17.7023 16.9523 17.1562 17.625 17.1562C18.2977 17.1562 18.8438 17.7023 18.8438 18.375C18.8438 19.0477 18.2977 19.5938 17.625 19.5938Z" />
</g>
</symbol>
<symbol id="time" viewBox="0 0 16 16">
<g>
<path d="M8 1C4.13438 1 1 4.13438 1 8C1 11.8656 4.13438 15 8 15C11.8656 15 15 11.8656 15 8C15 4.13438 11.8656 1 8 1ZM8 13.8125C4.79063 13.8125 2.1875 11.2094 2.1875 8C2.1875 4.79063 4.79063 2.1875 8 2.1875C11.2094 2.1875 13.8125 4.79063 13.8125 8C13.8125 11.2094 11.2094 13.8125 8 13.8125Z" fill="#0050B3"/>
<path d="M10.7297 9.97811L8.50156 8.36718V4.5C8.50156 4.43125 8.44531 4.375 8.37656 4.375H7.625C7.55625 4.375 7.5 4.43125 7.5 4.5V8.80311C7.5 8.84374 7.51875 8.88124 7.55156 8.90467L10.1359 10.789C10.1922 10.8297 10.2703 10.8172 10.3109 10.7625L10.7578 10.1531C10.7984 10.0953 10.7859 10.0172 10.7297 9.97811Z" fill="#0050B3"/>
</g>
</symbol>
<symbol id="gift" viewBox="0 0 24 24">
<g>
<path d="M12.7969 8.85938H19.7812V11.2969H12.7969V8.85938ZM5.34375 12.8906H11.2031V20.1094H5.34375V12.8906ZM4.21875 8.85938H11.2031V11.2969H4.21875V8.85938ZM12.7969 12.8906H18.6562V20.1094H12.7969V12.8906Z" fill="#E6F7FF"/>
<path d="M20.625 7.26562H17.1656C17.4844 6.76406 17.6719 6.16875 17.6719 5.53125C17.6719 3.74766 16.2211 2.29688 14.4375 2.29688C13.4672 2.29688 12.593 2.72812 12 3.40781C11.407 2.72812 10.5328 2.29688 9.5625 2.29688C7.77891 2.29688 6.32812 3.74766 6.32812 5.53125C6.32812 6.16875 6.51328 6.76406 6.83438 7.26562H3.375C2.96016 7.26562 2.625 7.60078 2.625 8.01562V12.7031C2.625 12.8062 2.70937 12.8906 2.8125 12.8906H3.75V20.9531C3.75 21.368 4.08516 21.7031 4.5 21.7031H19.5C19.9148 21.7031 20.25 21.368 20.25 20.9531V12.8906H21.1875C21.2906 12.8906 21.375 12.8062 21.375 12.7031V8.01562C21.375 7.60078 21.0398 7.26562 20.625 7.26562ZM11.2031 20.1094H5.34375V12.8906H11.2031V20.1094ZM11.2031 11.2969H4.21875V8.85938H11.2031V11.2969ZM11.2031 7.17188H9.5625C8.65781 7.17188 7.92188 6.43594 7.92188 5.53125C7.92188 4.62656 8.65781 3.89062 9.5625 3.89062C10.4672 3.89062 11.2031 4.62656 11.2031 5.53125V7.17188ZM12.7969 5.53125C12.7969 4.62656 13.5328 3.89062 14.4375 3.89062C15.3422 3.89062 16.0781 4.62656 16.0781 5.53125C16.0781 6.43594 15.3422 7.17188 14.4375 7.17188H12.7969V5.53125ZM18.6562 20.1094H12.7969V12.8906H18.6562V20.1094ZM19.7812 11.2969H12.7969V8.85938H19.7812V11.2969Z" fill="#1890FF"/>
</g>
</symbol>
<symbol id="messages" viewBox="0 0 16 16">
<g>
<path d="M7.25015 8C7.25015 8.19891 7.32917 8.38968 7.46982 8.53033C7.61047 8.67098 7.80124 8.75 8.00015 8.75C8.19906 8.75 8.38983 8.67098 8.53048 8.53033C8.67113 8.38968 8.75015 8.19891 8.75015 8C8.75015 7.80109 8.67113 7.61032 8.53048 7.46967C8.38983 7.32902 8.19906 7.25 8.00015 7.25C7.80124 7.25 7.61047 7.32902 7.46982 7.46967C7.32917 7.61032 7.25015 7.80109 7.25015 8ZM10.3751 8C10.3751 8.19891 10.4542 8.38968 10.5948 8.53033C10.7355 8.67098 10.9262 8.75 11.1251 8.75C11.3241 8.75 11.5148 8.67098 11.6555 8.53033C11.7961 8.38968 11.8751 8.19891 11.8751 8C11.8751 7.80109 11.7961 7.61032 11.6555 7.46967C11.5148 7.32902 11.3241 7.25 11.1251 7.25C10.9262 7.25 10.7355 7.32902 10.5948 7.46967C10.4542 7.61032 10.3751 7.80109 10.3751 8ZM4.12515 8C4.12515 8.19891 4.20417 8.38968 4.34482 8.53033C4.48547 8.67098 4.67624 8.75 4.87515 8.75C5.07406 8.75 5.26483 8.67098 5.40548 8.53033C5.54613 8.38968 5.62515 8.19891 5.62515 8C5.62515 7.80109 5.54613 7.61032 5.40548 7.46967C5.26483 7.32902 5.07406 7.25 4.87515 7.25C4.67624 7.25 4.48547 7.32902 4.34482 7.46967C4.20417 7.61032 4.12515 7.80109 4.12515 8ZM14.4564 5.2875C14.1033 4.44844 13.597 3.69531 12.9517 3.04844C12.3109 2.40531 11.5502 1.8941 10.7126 1.54375C9.85327 1.18281 8.94077 1 8.00015 1H7.9689C7.02202 1.00469 6.10484 1.19219 5.24234 1.56094C4.41196 1.91488 3.65837 2.427 3.02359 3.06875C2.38452 3.71406 1.88296 4.46406 1.53609 5.3C1.17671 6.16563 0.995462 7.08594 1.00015 8.03281C1.00545 9.11792 1.26217 10.187 1.75015 11.1562V13.5312C1.75015 13.7219 1.82587 13.9047 1.96067 14.0395C2.09546 14.1743 2.27828 14.25 2.4689 14.25H4.84546C5.81467 14.738 6.88379 14.9947 7.9689 15H8.00171C8.93765 15 9.84546 14.8188 10.7001 14.4641C11.5335 14.1179 12.2913 13.6126 12.9314 12.9766C13.5767 12.3375 14.0845 11.5906 14.4392 10.7578C14.808 9.89531 14.9955 8.97813 15.0001 8.03125C15.0048 7.07969 14.8205 6.15625 14.4564 5.2875ZM12.0955 12.1313C11.0001 13.2156 9.54702 13.8125 8.00015 13.8125H7.97359C7.0314 13.8078 6.09546 13.5734 5.2689 13.1328L5.13765 13.0625H2.93765V10.8625L2.86734 10.7312C2.42671 9.90469 2.19234 8.96875 2.18765 8.02656C2.1814 6.46875 2.77671 5.00625 3.8689 3.90469C4.95952 2.80312 6.41734 2.19375 7.97515 2.1875H8.00171C8.78296 2.1875 9.54077 2.33906 10.2548 2.63906C10.9517 2.93125 11.5767 3.35156 12.1142 3.88906C12.6501 4.425 13.072 5.05156 13.3642 5.74844C13.6673 6.47031 13.8189 7.23594 13.8158 8.02656C13.8064 9.58281 13.1955 11.0406 12.0955 12.1313Z" fill="#262626"/>
</g>
</symbol>
<symbol id="notifications" viewBox="0 0 16 16">
<g>
<path d="M12.75 12H12.375V6.6875C12.375 4.48281 10.7453 2.66094 8.625 2.35781V1.75C8.625 1.40469 8.34531 1.125 8 1.125C7.65469 1.125 7.375 1.40469 7.375 1.75V2.35781C5.25469 2.66094 3.625 4.48281 3.625 6.6875V12H3.25C2.97344 12 2.75 12.2234 2.75 12.5V13C2.75 13.0688 2.80625 13.125 2.875 13.125H6.25C6.25 14.0906 7.03438 14.875 8 14.875C8.96562 14.875 9.75 14.0906 9.75 13.125H13.125C13.1938 13.125 13.25 13.0688 13.25 13V12.5C13.25 12.2234 13.0266 12 12.75 12ZM8 13.875C7.58594 13.875 7.25 13.5391 7.25 13.125H8.75C8.75 13.5391 8.41406 13.875 8 13.875ZM4.75 12V6.6875C4.75 5.81875 5.0875 5.00312 5.70156 4.38906C6.31562 3.775 7.13125 3.4375 8 3.4375C8.86875 3.4375 9.68437 3.775 10.2984 4.38906C10.9125 5.00312 11.25 5.81875 11.25 6.6875V12H4.75Z" fill="#262626"/>
</g>
</symbol>
</svg>
